# xmcd CD database file
# Copyright (C) 1993-1998 Ti Kan
# 
# Track frame offsets:
#     150
#     14843
#     30388
#     44158
#     58658
#     73393
#     87280
#     100445
#     115025
#     129625
#     142293
#     154748
#     169750
#     183568
#     197775
#     210415
#     223160
#     236573
#     249808
#     260890
# 
# Disc length: 3620 seconds
# 
# Revision: 1
# Processed by: cddbd v1.4b41PL1 Copyright (c) Steve Scherf et al.
# Submitted via: DiscPlay 4.0.4
# 
DISCID=3a0e2214
DTITLE=Peetie Wheatstraw - Peetie Wheatstraw (1930-1941)
DYEAR=1900
DGENRE=
TTITLE0=Don't Feel Welcome Blues
TTITLE1=All Night Long Blues
TTITLE2=These Times
TTITLE3=More Good Whiskey Blues
TTITLE4=Santa Claus Blues
TTITLE5=Lonesome Lonesome Blues
TTITLE6=Good Woman Blues
TTITLE7=Meat Cutter Blues
TTITLE8=Drinking Man Blues
TTITLE9=Fairasee Woman (Memphis Woman)
TTITLE10=Beggar Man Blues
TTITLE11=Crazy With The Blues
TTITLE12=Third Street's Going Down
TTITLE13=What More Can A Man Do?
TTITLE14=I Want Some Sea Food
TTITLE15=Love Bug Blues
TTITLE16=Chicago Mill Blues
TTITLE17=Gangster's Blues
TTITLE18=Hearse Man Blues
TTITLE19=Bring Me Flowers While I'm Living
EXTD=
EXTT0=
EXTT1=
EXTT2=
EXTT3=
EXTT4=
EXTT5=
EXTT6=
EXTT7=
EXTT8=
EXTT9=
EXTT10=
EXTT11=
EXTT12=
EXTT13=
EXTT14=
EXTT15=
EXTT16=
EXTT17=
EXTT18=
EXTT19=
PLAYORDER=
